<svg width="260" height="402" viewBox="0 0 260 402" fill="none" xmlns="http://www.w3.org/2000/svg">
<path d="M88.1848 356.624C88.4248 356.976 88.5448 357.32 88.5448 357.656C88.5448 358.104 88.3608 358.472 87.9928 358.76C87.6408 359.048 87.2248 359.192 86.7448 359.192C86.4408 359.192 86.1448 359.12 85.8568 358.976C85.5688 358.832 85.3288 358.608 85.1368 358.304L81.9688 353.6C81.6968 353.184 81.4088 352.888 81.1048 352.712C80.8008 352.52 80.4168 352.424 79.9528 352.424H78.0088V357.272C78.0088 357.848 77.8408 358.304 77.5048 358.64C77.1848 358.976 76.7448 359.144 76.1848 359.144C75.6088 359.144 75.1528 358.976 74.8168 358.64C74.4808 358.304 74.3128 357.848 74.3128 357.272V343.832C74.3128 343.272 74.4648 342.84 74.7688 342.536C75.0728 342.232 75.5048 342.08 76.0648 342.08H82.0888C84.0728 342.08 85.5688 342.52 86.5768 343.4C87.6008 344.264 88.1128 345.52 88.1128 347.168C88.1128 348.464 87.7528 349.544 87.0328 350.408C86.3128 351.272 85.2968 351.84 83.9848 352.112C84.4648 352.208 84.8888 352.4 85.2568 352.688C85.6408 352.96 86.0088 353.36 86.3608 353.888L88.1848 356.624ZM81.5368 349.592C82.6088 349.592 83.3848 349.408 83.8648 349.04C84.3448 348.656 84.5848 348.064 84.5848 347.264C84.5848 346.448 84.3448 345.856 83.8648 345.488C83.3848 345.12 82.6088 344.936 81.5368 344.936H77.9608V349.592H81.5368ZM92.6769 359.144C92.1489 359.144 91.7089 359 91.3569 358.712C91.0209 358.424 90.8529 358 90.8529 357.44V348.68C90.8529 348.12 91.0289 347.696 91.3809 347.408C91.7329 347.12 92.1649 346.976 92.6769 346.976C93.1889 346.976 93.6129 347.12 93.9489 347.408C94.3009 347.696 94.4769 348.12 94.4769 348.68V357.44C94.4769 358 94.3009 358.424 93.9489 358.712C93.6129 359 93.1889 359.144 92.6769 359.144ZM92.6769 345.056C92.0369 345.056 91.5329 344.896 91.1649 344.576C90.7969 344.24 90.6129 343.792 90.6129 343.232C90.6129 342.672 90.7969 342.232 91.1649 341.912C91.5329 341.592 92.0369 341.432 92.6769 341.432C93.3009 341.432 93.7969 341.6 94.1649 341.936C94.5489 342.256 94.7409 342.688 94.7409 343.232C94.7409 343.792 94.5569 344.24 94.1889 344.576C93.8209 344.896 93.3169 345.056 92.6769 345.056ZM102.915 359.192C101.667 359.192 100.571 358.944 99.6274 358.448C98.6834 357.936 97.9554 357.224 97.4434 356.312C96.9314 355.384 96.6754 354.296 96.6754 353.048C96.6754 351.8 96.9314 350.72 97.4434 349.808C97.9554 348.88 98.6834 348.168 99.6274 347.672C100.571 347.176 101.667 346.928 102.915 346.928C104.163 346.928 105.259 347.176 106.203 347.672C107.147 348.168 107.875 348.88 108.387 349.808C108.899 350.72 109.155 351.8 109.155 353.048C109.155 354.296 108.899 355.384 108.387 356.312C107.875 357.224 107.147 357.936 106.203 358.448C105.259 358.944 104.163 359.192 102.915 359.192ZM102.915 356.432C104.675 356.432 105.555 355.304 105.555 353.048C105.555 351.912 105.323 351.064 104.859 350.504C104.411 349.944 103.763 349.664 102.915 349.664C101.155 349.664 100.275 350.792 100.275 353.048C100.275 355.304 101.155 356.432 102.915 356.432ZM128.12 341.96C128.68 341.96 129.128 342.112 129.464 342.416C129.816 342.72 129.992 343.12 129.992 343.616V357.44C129.992 357.952 129.824 358.368 129.488 358.688C129.168 358.992 128.736 359.144 128.192 359.144C127.648 359.144 127.208 358.992 126.872 358.688C126.552 358.368 126.392 357.952 126.392 357.44V357.248C126.04 357.856 125.536 358.336 124.88 358.688C124.24 359.024 123.512 359.192 122.696 359.192C121.688 359.192 120.784 358.936 119.984 358.424C119.2 357.896 118.584 357.168 118.136 356.24C117.704 355.296 117.488 354.216 117.488 353C117.488 351.784 117.704 350.72 118.136 349.808C118.584 348.88 119.2 348.168 119.984 347.672C120.768 347.176 121.672 346.928 122.696 346.928C123.496 346.928 124.216 347.096 124.856 347.432C125.512 347.768 126.016 348.24 126.368 348.848V343.544C126.368 343.064 126.528 342.68 126.848 342.392C127.168 342.104 127.592 341.96 128.12 341.96ZM123.752 356.432C124.6 356.432 125.248 356.144 125.696 355.568C126.16 354.976 126.392 354.136 126.392 353.048C126.392 351.96 126.16 351.128 125.696 350.552C125.248 349.976 124.6 349.688 123.752 349.688C122.904 349.688 122.248 349.976 121.784 350.552C121.32 351.112 121.088 351.928 121.088 353C121.088 354.088 121.32 354.936 121.784 355.544C122.248 356.136 122.904 356.432 123.752 356.432ZM138.447 359.192C137.199 359.192 136.103 358.944 135.159 358.448C134.215 357.936 133.487 357.224 132.975 356.312C132.463 355.384 132.207 354.296 132.207 353.048C132.207 351.8 132.463 350.72 132.975 349.808C133.487 348.88 134.215 348.168 135.159 347.672C136.103 347.176 137.199 346.928 138.447 346.928C139.695 346.928 140.791 347.176 141.735 347.672C142.679 348.168 143.407 348.88 143.919 349.808C144.431 350.72 144.687 351.8 144.687 353.048C144.687 354.296 144.431 355.384 143.919 356.312C143.407 357.224 142.679 357.936 141.735 358.448C140.791 358.944 139.695 359.192 138.447 359.192ZM138.447 356.432C140.207 356.432 141.087 355.304 141.087 353.048C141.087 351.912 140.855 351.064 140.391 350.504C139.943 349.944 139.295 349.664 138.447 349.664C136.687 349.664 135.807 350.792 135.807 353.048C135.807 355.304 136.687 356.432 138.447 356.432ZM159.979 359.216C158.715 359.216 157.539 359.072 156.451 358.784C155.363 358.48 154.475 358.056 153.787 357.512C153.547 357.336 153.371 357.152 153.259 356.96C153.163 356.752 153.115 356.496 153.115 356.192C153.115 355.792 153.235 355.44 153.475 355.136C153.731 354.832 154.019 354.68 154.339 354.68C154.515 354.68 154.683 354.712 154.843 354.776C155.019 354.824 155.227 354.92 155.467 355.064C156.155 355.496 156.851 355.816 157.555 356.024C158.259 356.216 159.035 356.312 159.883 356.312C160.939 356.312 161.747 356.136 162.307 355.784C162.867 355.432 163.147 354.928 163.147 354.272C163.147 353.776 162.883 353.376 162.355 353.072C161.843 352.768 160.923 352.48 159.595 352.208C158.107 351.904 156.915 351.536 156.019 351.104C155.139 350.672 154.491 350.136 154.075 349.496C153.675 348.856 153.475 348.08 153.475 347.168C153.475 346.16 153.763 345.256 154.339 344.456C154.931 343.64 155.739 343.008 156.763 342.56C157.803 342.096 158.971 341.864 160.267 341.864C162.539 341.864 164.411 342.432 165.883 343.568C166.123 343.76 166.291 343.96 166.387 344.168C166.499 344.36 166.555 344.6 166.555 344.888C166.555 345.288 166.427 345.64 166.171 345.944C165.931 346.248 165.651 346.4 165.331 346.4C165.155 346.4 164.987 346.376 164.827 346.328C164.683 346.28 164.475 346.176 164.203 346.016C163.547 345.6 162.939 345.288 162.379 345.08C161.835 344.872 161.139 344.768 160.291 344.768C159.315 344.768 158.547 344.96 157.987 345.344C157.427 345.712 157.147 346.224 157.147 346.88C157.147 347.264 157.251 347.584 157.459 347.84C157.683 348.08 158.043 348.296 158.539 348.488C159.051 348.68 159.771 348.88 160.699 349.088C162.875 349.568 164.435 350.184 165.379 350.936C166.339 351.688 166.819 352.72 166.819 354.032C166.819 355.056 166.531 355.96 165.955 356.744C165.395 357.528 164.595 358.136 163.555 358.568C162.531 359 161.339 359.216 159.979 359.216ZM178.756 346.976C179.316 346.976 179.756 347.128 180.076 347.432C180.412 347.736 180.58 348.152 180.58 348.68V357.488C180.58 357.984 180.404 358.384 180.052 358.688C179.716 358.992 179.276 359.144 178.732 359.144C178.22 359.144 177.812 359 177.508 358.712C177.204 358.424 177.052 358.04 177.052 357.56V357.32C176.684 357.928 176.196 358.392 175.588 358.712C174.996 359.032 174.324 359.192 173.572 359.192C172.084 359.192 170.972 358.784 170.236 357.968C169.516 357.136 169.156 355.888 169.156 354.224V348.68C169.156 348.152 169.316 347.736 169.636 347.432C169.972 347.128 170.42 346.976 170.98 346.976C171.54 346.976 171.98 347.128 172.3 347.432C172.62 347.736 172.78 348.152 172.78 348.68V354.296C172.78 355 172.924 355.52 173.212 355.856C173.516 356.192 173.972 356.36 174.58 356.36C175.284 356.36 175.852 356.12 176.284 355.64C176.732 355.16 176.956 354.528 176.956 353.744V348.68C176.956 348.152 177.116 347.736 177.436 347.432C177.756 347.128 178.196 346.976 178.756 346.976ZM185.185 359.144C184.657 359.144 184.217 359 183.865 358.712C183.529 358.424 183.361 358 183.361 357.44V343.664C183.361 343.104 183.529 342.68 183.865 342.392C184.217 342.104 184.657 341.96 185.185 341.96C185.697 341.96 186.121 342.104 186.457 342.392C186.809 342.68 186.985 343.104 186.985 343.664V357.44C186.985 358 186.809 358.424 186.457 358.712C186.121 359 185.697 359.144 185.185 359.144ZM57.6694 393.192C56.4534 393.192 55.2934 393.024 54.1894 392.688C53.1014 392.352 52.2294 391.888 51.5734 391.296C51.2694 391.04 51.1174 390.712 51.1174 390.312C51.1174 390.024 51.1974 389.784 51.3574 389.592C51.5174 389.384 51.7094 389.28 51.9334 389.28C52.1574 389.28 52.4294 389.384 52.7494 389.592C54.1734 390.648 55.7974 391.176 57.6214 391.176C58.9014 391.176 59.8854 390.936 60.5734 390.456C61.2614 389.976 61.6054 389.288 61.6054 388.392C61.6054 387.688 61.2854 387.16 60.6454 386.808C60.0054 386.456 58.9814 386.12 57.5734 385.8C56.2294 385.512 55.1254 385.184 54.2614 384.816C53.3974 384.448 52.7174 383.952 52.2214 383.328C51.7414 382.688 51.5014 381.88 51.5014 380.904C51.5014 379.928 51.7654 379.064 52.2934 378.312C52.8374 377.544 53.5894 376.952 54.5494 376.536C55.5094 376.104 56.6054 375.888 57.8374 375.888C58.9734 375.888 60.0214 376.048 60.9814 376.368C61.9414 376.688 62.7574 377.16 63.4294 377.784C63.7494 378.056 63.9094 378.384 63.9094 378.768C63.9094 379.04 63.8214 379.28 63.6454 379.488C63.4854 379.696 63.2934 379.8 63.0694 379.8C62.8614 379.8 62.5974 379.696 62.2774 379.488C61.5414 378.928 60.8454 378.528 60.1894 378.288C59.5494 378.032 58.7734 377.904 57.8614 377.904C56.6294 377.904 55.6694 378.16 54.9814 378.672C54.2934 379.168 53.9494 379.864 53.9494 380.76C53.9494 381.528 54.2534 382.112 54.8614 382.512C55.4694 382.896 56.4454 383.248 57.7894 383.568C59.1974 383.888 60.3334 384.224 61.1974 384.576C62.0774 384.912 62.7734 385.384 63.2854 385.992C63.8134 386.584 64.0774 387.352 64.0774 388.296C64.0774 389.256 63.8054 390.112 63.2614 390.864C62.7334 391.6 61.9814 392.176 61.0054 392.592C60.0454 392.992 58.9334 393.192 57.6694 393.192ZM71.7563 381C73.3083 381 74.4603 381.392 75.2123 382.176C75.9803 382.96 76.3643 384.152 76.3643 385.752V391.968C76.3643 392.336 76.2603 392.624 76.0523 392.832C75.8443 393.024 75.5563 393.12 75.1883 393.12C74.8363 393.12 74.5563 393.016 74.3483 392.808C74.1403 392.6 74.0363 392.32 74.0363 391.968V391.08C73.7323 391.752 73.2763 392.272 72.6683 392.64C72.0763 392.992 71.3803 393.168 70.5803 393.168C69.8123 393.168 69.1083 393.016 68.4683 392.712C67.8443 392.392 67.3483 391.96 66.9803 391.416C66.6123 390.872 66.4283 390.256 66.4283 389.568C66.4123 388.704 66.6283 388.032 67.0763 387.552C67.5243 387.056 68.2523 386.704 69.2603 386.496C70.2683 386.272 71.6683 386.16 73.4603 386.16H74.0123V385.464C74.0123 384.568 73.8283 383.92 73.4603 383.52C73.0923 383.12 72.5003 382.92 71.6843 382.92C71.1243 382.92 70.5963 382.992 70.1003 383.136C69.6043 383.28 69.0603 383.488 68.4683 383.76C68.0363 384 67.7323 384.12 67.5563 384.12C67.3163 384.12 67.1163 384.032 66.9563 383.856C66.8123 383.68 66.7402 383.456 66.7402 383.184C66.7402 382.944 66.8043 382.736 66.9323 382.56C67.0763 382.368 67.3003 382.184 67.6043 382.008C68.1643 381.704 68.8203 381.464 69.5723 381.288C70.3243 381.096 71.0523 381 71.7563 381ZM71.0123 391.368C71.8923 391.368 72.6123 391.072 73.1723 390.48C73.7323 389.872 74.0123 389.096 74.0123 388.152V387.528H73.5803C72.3323 387.528 71.3723 387.584 70.7003 387.696C70.0283 387.808 69.5483 388 69.2603 388.272C68.9723 388.528 68.8283 388.904 68.8283 389.4C68.8283 389.976 69.0363 390.448 69.4523 390.816C69.8683 391.184 70.3883 391.368 71.0123 391.368ZM85.992 381C88.792 381 90.192 382.576 90.192 385.728V391.968C90.192 392.336 90.08 392.624 89.856 392.832C89.648 393.024 89.352 393.12 88.968 393.12C88.6 393.12 88.304 393.016 88.08 392.808C87.872 392.6 87.768 392.32 87.768 391.968V385.848C87.768 384.856 87.568 384.128 87.168 383.664C86.784 383.2 86.176 382.968 85.344 382.968C84.368 382.968 83.584 383.272 82.992 383.88C82.4 384.488 82.104 385.304 82.104 386.328V391.968C82.104 392.32 81.992 392.6 81.768 392.808C81.56 393.016 81.272 393.12 80.904 393.12C80.536 393.12 80.24 393.016 80.016 392.808C79.792 392.6 79.68 392.32 79.68 391.968V382.2C79.68 381.864 79.792 381.592 80.016 381.384C80.256 381.16 80.552 381.048 80.904 381.048C81.256 381.048 81.536 381.152 81.744 381.36C81.952 381.568 82.056 381.84 82.056 382.176V383.16C82.44 382.456 82.976 381.92 83.664 381.552C84.352 381.184 85.128 381 85.992 381ZM99.2441 391.272C99.5961 391.304 99.8441 391.4 99.9881 391.56C100.148 391.704 100.228 391.912 100.228 392.184C100.228 392.504 100.1 392.752 99.8441 392.928C99.6041 393.088 99.2441 393.152 98.7641 393.12L98.1161 393.072C96.8201 392.976 95.8521 392.584 95.2121 391.896C94.5721 391.192 94.2521 390.16 94.2521 388.8V383.16H92.8121C92.1081 383.16 91.7561 382.848 91.7561 382.224C91.7561 381.936 91.8441 381.712 92.0201 381.552C92.2121 381.376 92.4761 381.288 92.8121 381.288H94.2521V378.816C94.2521 378.448 94.3561 378.16 94.5641 377.952C94.7881 377.744 95.0841 377.64 95.4521 377.64C95.8201 377.64 96.1161 377.744 96.3401 377.952C96.5641 378.16 96.6761 378.448 96.6761 378.816V381.288H99.0521C99.3881 381.288 99.6441 381.376 99.8201 381.552C100.012 381.712 100.108 381.936 100.108 382.224C100.108 382.528 100.012 382.76 99.8201 382.92C99.6441 383.08 99.3881 383.16 99.0521 383.16H96.6761V388.968C96.6761 389.72 96.8281 390.272 97.1321 390.624C97.4521 390.976 97.9321 391.176 98.5721 391.224L99.2441 391.272ZM106.889 381C108.441 381 109.593 381.392 110.345 382.176C111.113 382.96 111.497 384.152 111.497 385.752V391.968C111.497 392.336 111.393 392.624 111.185 392.832C110.977 393.024 110.689 393.12 110.321 393.12C109.969 393.12 109.689 393.016 109.481 392.808C109.273 392.6 109.169 392.32 109.169 391.968V391.08C108.865 391.752 108.409 392.272 107.801 392.64C107.209 392.992 106.513 393.168 105.713 393.168C104.945 393.168 104.241 393.016 103.601 392.712C102.977 392.392 102.481 391.96 102.113 391.416C101.745 390.872 101.561 390.256 101.561 389.568C101.545 388.704 101.761 388.032 102.209 387.552C102.657 387.056 103.385 386.704 104.393 386.496C105.401 386.272 106.801 386.16 108.593 386.16H109.145V385.464C109.145 384.568 108.961 383.92 108.593 383.52C108.225 383.12 107.633 382.92 106.817 382.92C106.257 382.92 105.729 382.992 105.233 383.136C104.737 383.28 104.193 383.488 103.601 383.76C103.169 384 102.865 384.12 102.689 384.12C102.449 384.12 102.249 384.032 102.089 383.856C101.945 383.68 101.873 383.456 101.873 383.184C101.873 382.944 101.937 382.736 102.065 382.56C102.209 382.368 102.433 382.184 102.737 382.008C103.297 381.704 103.953 381.464 104.705 381.288C105.457 381.096 106.185 381 106.889 381ZM106.145 391.368C107.025 391.368 107.745 391.072 108.305 390.48C108.865 389.872 109.145 389.096 109.145 388.152V387.528H108.713C107.465 387.528 106.505 387.584 105.833 387.696C105.161 387.808 104.681 388 104.393 388.272C104.105 388.528 103.961 388.904 103.961 389.4C103.961 389.976 104.169 390.448 104.585 390.816C105.001 391.184 105.521 391.368 106.145 391.368ZM128.797 393.192C127.181 393.192 125.773 392.848 124.573 392.16C123.373 391.456 122.453 390.456 121.813 389.16C121.173 387.848 120.853 386.304 120.853 384.528C120.853 382.768 121.173 381.24 121.813 379.944C122.453 378.632 123.373 377.632 124.573 376.944C125.773 376.24 127.181 375.888 128.797 375.888C129.853 375.888 130.853 376.056 131.797 376.392C132.741 376.712 133.565 377.184 134.269 377.808C134.573 378.048 134.725 378.368 134.725 378.768C134.725 379.056 134.645 379.304 134.485 379.512C134.325 379.704 134.133 379.8 133.909 379.8C133.637 379.8 133.373 379.696 133.117 379.488C132.349 378.912 131.645 378.512 131.005 378.288C130.381 378.048 129.669 377.928 128.869 377.928C127.109 377.928 125.757 378.496 124.813 379.632C123.869 380.768 123.397 382.4 123.397 384.528C123.397 386.672 123.869 388.312 124.813 389.448C125.757 390.584 127.109 391.152 128.869 391.152C129.637 391.152 130.333 391.032 130.957 390.792C131.597 390.552 132.317 390.152 133.117 389.592C133.437 389.384 133.701 389.28 133.909 389.28C134.133 389.28 134.325 389.384 134.485 389.592C134.645 389.784 134.725 390.024 134.725 390.312C134.725 390.712 134.573 391.032 134.269 391.272C133.565 391.896 132.741 392.376 131.797 392.712C130.853 393.032 129.853 393.192 128.797 393.192ZM142.069 381C143.621 381 144.773 381.392 145.525 382.176C146.293 382.96 146.677 384.152 146.677 385.752V391.968C146.677 392.336 146.573 392.624 146.365 392.832C146.157 393.024 145.869 393.12 145.501 393.12C145.149 393.12 144.869 393.016 144.661 392.808C144.453 392.6 144.349 392.32 144.349 391.968V391.08C144.045 391.752 143.589 392.272 142.981 392.64C142.389 392.992 141.693 393.168 140.893 393.168C140.125 393.168 139.421 393.016 138.781 392.712C138.157 392.392 137.661 391.96 137.293 391.416C136.925 390.872 136.741 390.256 136.741 389.568C136.725 388.704 136.941 388.032 137.389 387.552C137.837 387.056 138.565 386.704 139.573 386.496C140.581 386.272 141.981 386.16 143.773 386.16H144.325V385.464C144.325 384.568 144.141 383.92 143.773 383.52C143.405 383.12 142.813 382.92 141.997 382.92C141.437 382.92 140.909 382.992 140.413 383.136C139.917 383.28 139.373 383.488 138.781 383.76C138.349 384 138.045 384.12 137.869 384.12C137.629 384.12 137.429 384.032 137.269 383.856C137.125 383.68 137.053 383.456 137.053 383.184C137.053 382.944 137.117 382.736 137.245 382.56C137.389 382.368 137.613 382.184 137.917 382.008C138.477 381.704 139.133 381.464 139.885 381.288C140.637 381.096 141.365 381 142.069 381ZM141.325 391.368C142.205 391.368 142.925 391.072 143.485 390.48C144.045 389.872 144.325 389.096 144.325 388.152V387.528H143.893C142.645 387.528 141.685 387.584 141.013 387.696C140.341 387.808 139.861 388 139.573 388.272C139.285 388.528 139.141 388.904 139.141 389.4C139.141 389.976 139.349 390.448 139.765 390.816C140.181 391.184 140.701 391.368 141.325 391.368ZM155.729 391.272C156.081 391.304 156.329 391.4 156.473 391.56C156.633 391.704 156.713 391.912 156.713 392.184C156.713 392.504 156.585 392.752 156.329 392.928C156.089 393.088 155.729 393.152 155.249 393.12L154.601 393.072C153.305 392.976 152.337 392.584 151.697 391.896C151.057 391.192 150.737 390.16 150.737 388.8V383.16H149.297C148.593 383.16 148.24 382.848 148.24 382.224C148.24 381.936 148.329 381.712 148.505 381.552C148.697 381.376 148.961 381.288 149.297 381.288H150.737V378.816C150.737 378.448 150.841 378.16 151.049 377.952C151.273 377.744 151.569 377.64 151.937 377.64C152.305 377.64 152.601 377.744 152.825 377.952C153.049 378.16 153.161 378.448 153.161 378.816V381.288H155.537C155.873 381.288 156.129 381.376 156.305 381.552C156.497 381.712 156.593 381.936 156.593 382.224C156.593 382.528 156.497 382.76 156.305 382.92C156.129 383.08 155.873 383.16 155.537 383.16H153.161V388.968C153.161 389.72 153.313 390.272 153.617 390.624C153.937 390.976 154.417 391.176 155.057 391.224L155.729 391.272ZM163.373 381C164.925 381 166.077 381.392 166.829 382.176C167.597 382.96 167.981 384.152 167.981 385.752V391.968C167.981 392.336 167.877 392.624 167.669 392.832C167.461 393.024 167.173 393.12 166.805 393.12C166.453 393.12 166.173 393.016 165.965 392.808C165.757 392.6 165.653 392.32 165.653 391.968V391.08C165.349 391.752 164.893 392.272 164.285 392.64C163.693 392.992 162.997 393.168 162.197 393.168C161.429 393.168 160.725 393.016 160.085 392.712C159.461 392.392 158.965 391.96 158.597 391.416C158.229 390.872 158.045 390.256 158.045 389.568C158.029 388.704 158.245 388.032 158.693 387.552C159.141 387.056 159.869 386.704 160.877 386.496C161.885 386.272 163.285 386.16 165.077 386.16H165.629V385.464C165.629 384.568 165.445 383.92 165.077 383.52C164.709 383.12 164.117 382.92 163.301 382.92C162.741 382.92 162.213 382.992 161.717 383.136C161.221 383.28 160.677 383.488 160.085 383.76C159.653 384 159.349 384.12 159.173 384.12C158.933 384.12 158.733 384.032 158.573 383.856C158.429 383.68 158.357 383.456 158.357 383.184C158.357 382.944 158.421 382.736 158.549 382.56C158.693 382.368 158.917 382.184 159.221 382.008C159.781 381.704 160.437 381.464 161.189 381.288C161.941 381.096 162.669 381 163.373 381ZM162.629 391.368C163.509 391.368 164.229 391.072 164.789 390.48C165.349 389.872 165.629 389.096 165.629 388.152V387.528H165.197C163.949 387.528 162.989 387.584 162.317 387.696C161.645 387.808 161.165 388 160.877 388.272C160.589 388.528 160.445 388.904 160.445 389.4C160.445 389.976 160.653 390.448 161.069 390.816C161.485 391.184 162.005 391.368 162.629 391.368ZM177.441 381.048C178.209 381 178.593 381.328 178.593 382.032C178.593 382.384 178.505 382.648 178.329 382.824C178.153 383 177.849 383.104 177.417 383.136L176.697 383.208C175.689 383.304 174.937 383.656 174.441 384.264C173.961 384.872 173.721 385.608 173.721 386.472V391.968C173.721 392.352 173.609 392.64 173.385 392.832C173.161 393.024 172.873 393.12 172.521 393.12C172.169 393.12 171.873 393.024 171.633 392.832C171.409 392.64 171.297 392.352 171.297 391.968V382.2C171.297 381.832 171.409 381.552 171.633 381.36C171.873 381.152 172.169 381.048 172.521 381.048C172.841 381.048 173.105 381.152 173.313 381.36C173.537 381.552 173.649 381.824 173.649 382.176V383.328C173.969 382.624 174.433 382.088 175.041 381.72C175.649 381.352 176.337 381.136 177.105 381.072L177.441 381.048ZM181.31 393.12C180.958 393.12 180.662 393.024 180.422 392.832C180.198 392.64 180.086 392.352 180.086 391.968V382.224C180.086 381.84 180.198 381.552 180.422 381.36C180.662 381.152 180.958 381.048 181.31 381.048C181.662 381.048 181.95 381.152 182.174 381.36C182.398 381.552 182.51 381.84 182.51 382.224V391.968C182.51 392.352 182.398 392.64 182.174 392.832C181.95 393.024 181.662 393.12 181.31 393.12ZM181.31 378.696C180.846 378.696 180.478 378.568 180.206 378.312C179.934 378.056 179.798 377.72 179.798 377.304C179.798 376.888 179.934 376.56 180.206 376.32C180.478 376.064 180.846 375.936 181.31 375.936C181.758 375.936 182.118 376.064 182.39 376.32C182.678 376.56 182.822 376.888 182.822 377.304C182.822 377.72 182.686 378.056 182.414 378.312C182.142 378.568 181.774 378.696 181.31 378.696ZM192.211 381C195.011 381 196.411 382.576 196.411 385.728V391.968C196.411 392.336 196.299 392.624 196.075 392.832C195.867 393.024 195.571 393.12 195.187 393.12C194.819 393.12 194.523 393.016 194.299 392.808C194.091 392.6 193.987 392.32 193.987 391.968V385.848C193.987 384.856 193.787 384.128 193.387 383.664C193.003 383.2 192.395 382.968 191.563 382.968C190.587 382.968 189.803 383.272 189.211 383.88C188.619 384.488 188.323 385.304 188.323 386.328V391.968C188.323 392.32 188.211 392.6 187.987 392.808C187.779 393.016 187.491 393.12 187.123 393.12C186.755 393.12 186.459 393.016 186.235 392.808C186.011 392.6 185.899 392.32 185.899 391.968V382.2C185.899 381.864 186.011 381.592 186.235 381.384C186.475 381.16 186.771 381.048 187.123 381.048C187.475 381.048 187.755 381.152 187.963 381.36C188.171 381.568 188.275 381.84 188.275 382.176V383.16C188.659 382.456 189.195 381.92 189.883 381.552C190.571 381.184 191.347 381 192.211 381ZM204.647 381C206.199 381 207.351 381.392 208.103 382.176C208.871 382.96 209.255 384.152 209.255 385.752V391.968C209.255 392.336 209.151 392.624 208.943 392.832C208.735 393.024 208.447 393.12 208.079 393.12C207.727 393.12 207.447 393.016 207.239 392.808C207.031 392.6 206.927 392.32 206.927 391.968V391.08C206.623 391.752 206.167 392.272 205.559 392.64C204.967 392.992 204.271 393.168 203.471 393.168C202.703 393.168 201.999 393.016 201.359 392.712C200.735 392.392 200.239 391.96 199.871 391.416C199.503 390.872 199.319 390.256 199.319 389.568C199.303 388.704 199.519 388.032 199.967 387.552C200.415 387.056 201.143 386.704 202.151 386.496C203.159 386.272 204.559 386.16 206.351 386.16H206.903V385.464C206.903 384.568 206.719 383.92 206.351 383.52C205.983 383.12 205.391 382.92 204.575 382.92C204.015 382.92 203.487 382.992 202.991 383.136C202.495 383.28 201.951 383.488 201.359 383.76C200.927 384 200.623 384.12 200.447 384.12C200.207 384.12 200.007 384.032 199.847 383.856C199.703 383.68 199.631 383.456 199.631 383.184C199.631 382.944 199.695 382.736 199.823 382.56C199.967 382.368 200.191 382.184 200.495 382.008C201.055 381.704 201.711 381.464 202.463 381.288C203.215 381.096 203.943 381 204.647 381ZM203.903 391.368C204.783 391.368 205.503 391.072 206.063 390.48C206.623 389.872 206.903 389.096 206.903 388.152V387.528H206.471C205.223 387.528 204.263 387.584 203.591 387.696C202.919 387.808 202.439 388 202.151 388.272C201.863 388.528 201.719 388.904 201.719 389.4C201.719 389.976 201.927 390.448 202.343 390.816C202.759 391.184 203.279 391.368 203.903 391.368Z" fill="white"/>
<path fill-rule="evenodd" clip-rule="evenodd" d="M29.1806 167.049C25.1994 167.049 20.4745 167.89 15.3121 173.853V157.165C15.3121 152.949 11.8778 149.52 7.65607 149.52C3.43429 149.52 0 152.949 0 157.165V211.588C0 215.804 3.43429 219.233 7.65607 219.233C11.8778 219.233 15.3121 215.804 15.3121 211.588V190.465C15.3121 184.393 18.1996 181.04 23.4604 181.04C28.6118 181.04 31.3242 184.295 31.3242 190.465V211.588C31.3242 215.804 34.7585 219.233 38.9803 219.233C43.2021 219.233 46.6364 215.804 46.6364 211.588V186.031C46.6254 174.148 40.1069 167.049 29.1806 167.049ZM73.1482 167.42C66.914 167.42 61.9704 168.229 57.1252 170.042C54.6096 170.981 52.9253 173.406 52.9253 176.071C52.9253 179.631 55.758 182.416 59.3783 182.416C60.122 182.416 60.7454 182.307 61.5985 182.023C64.5406 181.105 67.6468 180.669 71.1139 180.669C79.3387 180.669 81.0887 185.201 81.1105 189.035C78.2559 188.106 74.6576 187.254 69.6374 187.254C56.5564 187.254 49.0535 193.229 49.0535 203.659V203.845C49.0535 213.27 56.1408 219.605 66.6843 219.605C72.6232 219.605 77.3809 217.803 81.1762 214.111C81.8214 216.809 84.4136 219.244 88.3947 219.244C92.5837 219.244 95.8649 216.012 95.8649 211.883V189.351C95.8649 182.263 94.0055 176.802 90.3197 173.133C86.5135 169.343 80.7387 167.42 73.1482 167.42ZM70.928 208.65C66.5859 208.65 63.8953 206.597 63.8953 203.288V203.102C63.8953 199.159 67.1984 196.909 72.9623 196.909C75.9154 196.909 78.8575 197.488 81.2965 198.537V200.623C81.2965 205.341 77.0309 208.65 70.928 208.65ZM116.383 173.984C120.342 169.321 125.22 167.049 131.258 167.049C142.775 167.049 154.423 176.038 154.423 193.229V193.414C154.423 201.333 151.984 208.039 147.379 212.822C143.168 217.202 137.448 219.605 131.258 219.605C125.297 219.605 120.561 217.573 116.46 213.248V226.355C116.46 230.57 113.025 234 108.804 234C104.582 234 101.148 230.57 101.148 226.355V175.066C101.148 170.85 104.582 167.42 108.804 167.42C112.664 167.42 115.858 170.282 116.383 173.984ZM139.122 193.229C139.122 185.813 134.189 180.21 127.648 180.21C121.064 180.21 116.274 185.682 116.274 193.229V193.414C116.274 200.961 121.053 206.433 127.648 206.433C134.298 206.433 139.122 200.961 139.122 193.414V193.229ZM188.066 167.049C182.028 167.049 177.15 169.321 173.191 173.984C172.666 170.282 169.472 167.42 165.612 167.42C161.39 167.42 157.956 170.85 157.956 175.066V226.355C157.956 230.57 161.39 234 165.612 234C169.833 234 173.268 230.57 173.268 226.355V213.248C177.369 217.573 182.105 219.605 188.066 219.605C194.256 219.605 199.976 217.202 204.187 212.822C208.792 208.039 211.231 201.333 211.231 193.414V193.229C211.231 176.038 199.583 167.049 188.066 167.049ZM184.456 180.21C190.997 180.21 195.93 185.813 195.93 193.229V193.414C195.93 200.961 191.106 206.433 184.456 206.433C177.861 206.433 173.082 200.961 173.082 193.414V193.229C173.082 185.682 177.872 180.21 184.456 180.21ZM245.388 173.187C246.81 169.408 249.347 167.42 252.727 167.42C256.806 167.42 260.011 170.533 260 174.487C260 175.634 259.628 177.294 259.3 178.058L242.03 219.474C237.688 229.97 233.16 233.694 224.727 233.694C221.752 233.694 219.467 233.301 216.842 232.362C215.037 231.706 211.996 230.002 211.996 225.961C211.996 221.986 215.135 219.616 218.165 219.616C219.368 219.616 220.09 219.823 220.67 220.02C221.862 220.391 222.518 220.544 223.426 220.544C225.723 220.544 226.685 220.173 227.844 217.956L228.194 217.126L211.395 178.255C211.012 177.294 210.607 175.808 210.607 174.771C210.607 170.577 213.856 167.409 218.165 167.409C221.72 167.409 224.126 169.266 225.504 173.089L235.621 200.251L245.388 173.187Z" fill="white"/>
<path d="M184.889 32.1055V76.7781C184.889 94.5087 170.406 108.884 152.542 108.884H149.271L132.563 125.456C131.909 126.105 131.003 126.517 130 126.517C129.073 126.517 128.233 126.181 127.59 125.618L127.306 125.337L127.295 125.326L110.729 108.884H107.447C89.594 108.884 75.1111 94.5087 75.1111 76.7781V32.1055C75.1111 14.3749 89.594 0 107.458 0H152.542C170.406 0 184.889 14.3749 184.889 32.1055Z" fill="#FFD666"/>
<path d="M100.671 61.8857C97.4862 61.8857 95.6711 65.4875 97.5188 68.0881C104.703 78.2186 116.583 84.8235 130.005 84.8235C143.428 84.8235 155.297 78.2077 162.481 68.0881C164.329 65.4875 162.514 61.8857 159.329 61.8857H100.671Z" fill="white"/>
<path d="M119.321 46.554H100.106V36.935C100.106 31.6249 104.41 27.3159 109.714 27.3159C115.017 27.3159 119.321 31.6249 119.321 36.935V46.554Z" fill="white"/>
<path d="M159.905 46.554H140.689V36.935C140.689 31.6249 144.993 27.3159 150.297 27.3159C155.601 27.3159 159.905 31.6249 159.905 36.935V46.554Z" fill="white"/>
<path d="M100.671 61.8857C97.4862 61.8857 95.6711 65.4875 97.5188 68.0881C104.703 78.2186 116.583 84.8235 130.005 84.8235C143.428 84.8235 155.297 78.2077 162.481 68.0881C164.329 65.4875 162.514 61.8857 159.329 61.8857H100.671Z" fill="white"/>
<path d="M119.321 46.554H100.106V36.935C100.106 31.6249 104.41 27.3159 109.714 27.3159C115.017 27.3159 119.321 31.6249 119.321 36.935V46.554Z" fill="white"/>
<path d="M159.905 46.554H140.689V36.935C140.689 31.6249 144.993 27.3159 150.297 27.3159C155.601 27.3159 159.905 31.6249 159.905 36.935V46.554Z" fill="white"/>
</svg>
